# Blender v3.2.0 OBJ File: ''
# www.blender.org
mtllib basic.mtl
o Cylinder
v 0.000000 -1.000000 -1.000000
v 0.000000 1.000000 -1.000000
v 0.382683 -1.000000 -0.923880
v 0.382683 1.000000 -0.923880
v 0.707107 -1.000000 -0.707107
v 0.707107 1.000000 -0.707107
v 0.923880 -1.000000 -0.382683
v 0.923880 1.000000 -0.382683
v 1.000000 -1.000000 0.000000
v 1.000000 1.000000 0.000000
v 0.923880 -1.000000 0.382683
v 0.923880 1.000000 0.382683
v 0.707107 -1.000000 0.707107
v 0.707107 1.000000 0.707107
v 0.382683 -1.000000 0.923880
v 0.382683 1.000000 0.923880
v -0.000000 -1.000000 1.000000
v -0.000000 1.000000 1.000000
v -0.382683 -1.000000 0.923880
v -0.382683 1.000000 0.923880
v -0.707107 -1.000000 0.707107
v -0.707107 1.000000 0.707107
v -0.923880 -1.000000 0.382684
v -0.923880 1.000000 0.382684
v -1.000000 -1.000000 -0.000000
v -1.000000 1.000000 -0.000000
v -0.923879 -1.000000 -0.382684
v -0.923879 1.000000 -0.382684
v -0.707107 -1.000000 -0.707107
v -0.707107 1.000000 -0.707107
v -0.382683 -1.000000 -0.923880
v -0.382683 1.000000 -0.923880
v 0.354115 1.336266 -0.854910
v 0.000000 1.336266 -0.925348
v 0.654320 1.336266 -0.654320
v 0.854910 1.336266 -0.354115
v 0.925348 1.336266 0.000000
v 0.854910 1.336266 0.354115
v 0.654320 1.336266 0.654320
v 0.354115 1.336266 0.854910
v -0.000000 1.336266 0.925348
v -0.354115 1.336266 0.854910
v -0.654320 1.336266 0.654320
v -0.854910 1.336266 0.354115
v -0.925348 1.336266 -0.000000
v -0.854910 1.336266 -0.354116
v -0.654320 1.336266 -0.654320
v -0.354115 1.336266 -0.854910
v 0.295550 1.513131 -0.713521
v 0.000000 1.513131 -0.772310
v 0.546106 1.513131 -0.546106
v 0.713521 1.513131 -0.295550
v 0.772310 1.513131 0.000000
v 0.713521 1.513131 0.295550
v 0.546106 1.513131 0.546106
v 0.295550 1.513131 0.713521
v -0.000000 1.513131 0.772310
v -0.295550 1.513131 0.713521
v -0.546106 1.513131 0.546106
v -0.713521 1.513131 0.295550
v -0.772310 1.513131 -0.000000
v -0.713521 1.513131 -0.295550
v -0.546106 1.513131 -0.546106
v -0.295550 1.513131 -0.713521
v 0.169083 1.674616 -0.408202
v 0.000000 1.674616 -0.441834
v 0.312424 1.674616 -0.312424
v 0.408202 1.674616 -0.169083
v 0.441834 1.674616 0.000000
v 0.408202 1.674616 0.169083
v 0.312424 1.674616 0.312424
v 0.169083 1.674616 0.408202
v -0.000000 1.674616 0.441834
v -0.169083 1.674616 0.408202
v -0.312424 1.674616 0.312424
v -0.408202 1.674616 0.169083
v -0.441834 1.674616 -0.000000
v -0.408202 1.674616 -0.169083
v -0.312424 1.674616 -0.312424
v -0.169083 1.674616 -0.408202
v 0.000000 -1.000000 -0.599432
v 0.229393 -1.000000 -0.553803
v 0.423862 -1.000000 -0.423862
v 0.553803 -1.000000 -0.229393
v 0.599432 -1.000000 0.000000
v 0.553803 -1.000000 0.229393
v 0.423862 -1.000000 0.423862
v 0.229393 -1.000000 0.553803
v -0.000000 -1.000000 0.599432
v -0.229393 -1.000000 0.553803
v -0.423862 -1.000000 0.423862
v -0.553803 -1.000000 0.229393
v -0.599432 -1.000000 -0.000000
v -0.553803 -1.000000 -0.229393
v -0.423862 -1.000000 -0.423862
v -0.229393 -1.000000 -0.553803
v 0.000000 -2.131763 -0.599432
v 0.229393 -2.131763 -0.553803
v 0.423862 -2.131763 -0.423862
v 0.553803 -2.131763 -0.229393
v 0.599432 -2.131763 0.000000
v 0.553803 -2.131763 0.229393
v 0.423862 -2.131763 0.423862
v 0.229393 -2.131763 0.553803
v -0.000000 -2.131763 0.599432
v -0.229393 -2.131763 0.553803
v -0.423862 -2.131763 0.423862
v -0.553803 -2.131763 0.229393
v -0.599432 -2.131763 -0.000000
v -0.553803 -2.131763 -0.229393
v -0.423862 -2.131763 -0.423862
v -0.229393 -2.131763 -0.553803
vt 1.000000 0.500000
vt 1.000000 1.000000
vt 0.937500 1.000000
vt 0.937500 0.500000
vt 0.875000 1.000000
vt 0.875000 0.500000
vt 0.812500 1.000000
vt 0.812500 0.500000
vt 0.750000 1.000000
vt 0.750000 0.500000
vt 0.687500 1.000000
vt 0.687500 0.500000
vt 0.625000 1.000000
vt 0.625000 0.500000
vt 0.562500 1.000000
vt 0.562500 0.500000
vt 0.500000 1.000000
vt 0.500000 0.500000
vt 0.437500 1.000000
vt 0.437500 0.500000
vt 0.375000 1.000000
vt 0.375000 0.500000
vt 0.312500 1.000000
vt 0.312500 0.500000
vt 0.250000 1.000000
vt 0.250000 0.500000
vt 0.187500 1.000000
vt 0.187500 0.500000
vt 0.125000 1.000000
vt 0.125000 0.500000
vt 0.937500 1.000000
vt 0.875000 1.000000
vt 0.062500 1.000000
vt 0.062500 0.500000
vt 0.000000 1.000000
vt 0.000000 0.500000
vt 0.375000 0.500000
vt 0.437500 0.500000
vt 0.937500 1.000000
vt 0.875000 1.000000
vt 0.625000 1.000000
vt 0.562500 1.000000
vt 0.312500 1.000000
vt 0.250000 1.000000
vt 0.750000 1.000000
vt 0.687500 1.000000
vt 0.437500 1.000000
vt 0.375000 1.000000
vt 0.125000 1.000000
vt 0.062500 1.000000
vt 0.812500 1.000000
vt 0.500000 1.000000
vt 0.187500 1.000000
vt 1.000000 1.000000
vt 0.000000 1.000000
vt 0.562500 1.000000
vt 0.625000 1.000000
vt 0.625000 1.000000
vt 0.562500 1.000000
vt 0.437500 1.000000
vt 0.375000 1.000000
vt 0.812500 1.000000
vt 0.312500 1.000000
vt 0.750000 1.000000
vt 0.250000 1.000000
vt 0.687500 1.000000
vt 0.187500 1.000000
vt 0.125000 1.000000
vt 0.062500 1.000000
vt 0.500000 1.000000
vt 1.000000 1.000000
vt 0.000000 1.000000
vt 0.341844 0.471731
vt 0.250000 0.490000
vt 0.158156 0.471731
vt 0.080294 0.419706
vt 0.028269 0.341844
vt 0.010000 0.250000
vt 0.028269 0.158156
vt 0.080294 0.080294
vt 0.158156 0.028269
vt 0.250000 0.010000
vt 0.341844 0.028269
vt 0.419706 0.080294
vt 0.471731 0.158156
vt 0.490000 0.250000
vt 0.471731 0.341844
vt 0.419706 0.419706
vt 0.125000 1.000000
vt 0.062500 1.000000
vt 0.500000 1.000000
vt 1.000000 1.000000
vt 0.937500 1.000000
vt 0.000000 1.000000
vt 0.437500 1.000000
vt 0.875000 1.000000
vt 0.375000 1.000000
vt 0.812500 1.000000
vt 0.312500 1.000000
vt 0.750000 1.000000
vt 0.250000 1.000000
vt 0.687500 1.000000
vt 0.187500 1.000000
vt 0.312500 0.500000
vt 0.312500 0.500000
vt 0.375000 0.500000
vt 0.062500 0.500000
vt 0.125000 0.500000
vt 0.812500 0.500000
vt 0.875000 0.500000
vt 0.500000 0.500000
vt 0.562500 0.500000
vt 0.937500 0.500000
vt 1.000000 0.500000
vt 0.187500 0.500000
vt 0.250000 0.500000
vt 0.625000 0.500000
vt 0.687500 0.500000
vt 0.000000 0.500000
vt 0.750000 0.500000
vt 0.750000 0.490000
vt 0.841844 0.471731
vt 0.919706 0.419706
vt 0.971731 0.341844
vt 0.990000 0.250000
vt 0.971731 0.158156
vt 0.919706 0.080294
vt 0.841844 0.028269
vt 0.750000 0.010000
vt 0.658156 0.028269
vt 0.580294 0.080294
vt 0.528269 0.158156
vt 0.510000 0.250000
vt 0.528269 0.341844
vt 0.580294 0.419706
vt 0.658156 0.471731
vt 0.750000 0.500000
vt 0.812500 0.500000
vt 0.250000 0.500000
vt 0.687500 0.500000
vt 0.187500 0.500000
vt 0.625000 0.500000
vt 0.125000 0.500000
vt 0.562500 0.500000
vt 0.062500 0.500000
vt 0.500000 0.500000
vt 0.937500 0.500000
vt 1.000000 0.500000
vt 0.000000 0.500000
vt 0.437500 0.500000
vt 0.875000 0.500000
vn 0.1951 0.0000 -0.9808
vn 0.5556 0.0000 -0.8315
vn 0.8315 0.0000 -0.5556
vn 0.9808 0.0000 -0.1951
vn 0.9808 0.0000 0.1951
vn 0.8315 0.0000 0.5556
vn 0.5556 0.0000 0.8315
vn 0.1951 0.0000 0.9808
vn -0.1951 0.0000 0.9808
vn -0.5556 0.0000 0.8315
vn -0.8315 0.0000 0.5556
vn -0.9808 0.0000 0.1951
vn -0.9808 0.0000 -0.1951
vn -0.8315 0.0000 -0.5556
vn 0.5429 0.2128 -0.8124
vn -0.5556 0.0000 -0.8315
vn -0.1951 0.0000 -0.9808
vn 0.0000 -1.0000 -0.0000
vn 0.4236 0.6471 -0.6339
vn 0.5429 0.2128 0.8124
vn -0.9583 0.2128 0.1906
vn 0.9583 0.2128 0.1906
vn -0.5429 0.2128 0.8124
vn -0.5429 0.2128 -0.8124
vn 0.8124 0.2128 -0.5429
vn 0.1906 0.2128 0.9583
vn -0.9583 0.2128 -0.1906
vn 0.1906 0.2128 -0.9583
vn 0.8124 0.2128 0.5429
vn -0.8124 0.2128 0.5429
vn -0.1906 0.2128 -0.9583
vn 0.9583 0.2128 -0.1906
vn -0.1906 0.2128 0.9583
vn -0.8124 0.2128 -0.5429
vn 0.2477 0.8951 0.3708
vn -0.4236 0.6471 0.6339
vn 0.6339 0.6471 -0.4236
vn -0.6339 0.6471 0.4236
vn 0.7478 0.6471 -0.1487
vn -0.7478 0.6471 0.1487
vn 0.7478 0.6471 0.1487
vn -0.7478 0.6471 -0.1487
vn 0.6339 0.6471 0.4236
vn -0.6339 0.6471 -0.4236
vn 0.4236 0.6471 0.6339
vn -0.4236 0.6471 -0.6339
vn 0.1487 0.6471 0.7478
vn 0.1487 0.6471 -0.7478
vn -0.1487 0.6471 -0.7478
vn -0.1487 0.6471 0.7478
vn 0.0000 1.0000 -0.0000
vn -0.2477 0.8951 -0.3708
vn 0.0870 0.8951 0.4374
vn 0.0870 0.8951 -0.4374
vn -0.0870 0.8951 -0.4374
vn -0.0870 0.8951 0.4374
vn 0.2477 0.8951 -0.3708
vn -0.2477 0.8951 0.3708
vn 0.3708 0.8951 -0.2478
vn -0.3708 0.8951 0.2478
vn 0.4374 0.8951 -0.0870
vn -0.4374 0.8951 0.0870
vn 0.4374 0.8951 0.0870
vn -0.4374 0.8951 -0.0870
vn 0.3708 0.8951 0.2478
vn -0.3708 0.8951 -0.2478
usemtl None
s off
f 1/1/1 2/2/1 4/3/1 3/4/1
f 3/4/2 4/3/2 6/5/2 5/6/2
f 5/6/3 6/5/3 8/7/3 7/8/3
f 7/8/4 8/7/4 10/9/4 9/10/4
f 9/10/5 10/9/5 12/11/5 11/12/5
f 11/12/6 12/11/6 14/13/6 13/14/6
f 13/14/7 14/13/7 16/15/7 15/16/7
f 15/16/8 16/15/8 18/17/8 17/18/8
f 17/18/9 18/17/9 20/19/9 19/20/9
f 19/20/10 20/19/10 22/21/10 21/22/10
f 21/22/11 22/21/11 24/23/11 23/24/11
f 23/24/12 24/23/12 26/25/12 25/26/12
f 25/26/13 26/25/13 28/27/13 27/28/13
f 27/28/14 28/27/14 30/29/14 29/30/14
f 6/5/15 4/3/15 33/31/15 35/32/15
f 29/30/16 30/29/16 32/33/16 31/34/16
f 31/34/17 32/33/17 2/35/17 1/36/17
f 19/20/18 21/22/18 91/37/18 90/38/18
f 35/32/19 33/31/19 49/39/19 51/40/19
f 16/15/20 14/13/20 39/41/20 40/42/20
f 26/25/21 24/23/21 44/43/21 45/44/21
f 12/11/22 10/9/22 37/45/22 38/46/22
f 22/21/23 20/19/23 42/47/23 43/48/23
f 32/33/24 30/29/24 47/49/24 48/50/24
f 8/7/25 6/5/25 35/32/25 36/51/25
f 18/17/26 16/15/26 40/42/26 41/52/26
f 28/27/27 26/25/27 45/44/27 46/53/27
f 4/3/28 2/2/28 34/54/28 33/31/28
f 14/13/29 12/11/29 38/46/29 39/41/29
f 24/23/30 22/21/30 43/48/30 44/43/30
f 2/35/31 32/33/31 48/50/31 34/55/31
f 10/9/32 8/7/32 36/51/32 37/45/32
f 20/19/33 18/17/33 41/52/33 42/47/33
f 30/29/34 28/27/34 46/53/34 47/49/34
f 56/56/35 55/57/35 71/58/35 72/59/35
f 43/48/36 42/47/36 58/60/36 59/61/36
f 36/51/37 35/32/37 51/40/37 52/62/37
f 44/43/38 43/48/38 59/61/38 60/63/38
f 37/45/39 36/51/39 52/62/39 53/64/39
f 45/44/40 44/43/40 60/63/40 61/65/40
f 38/46/41 37/45/41 53/64/41 54/66/41
f 46/53/42 45/44/42 61/65/42 62/67/42
f 39/41/43 38/46/43 54/66/43 55/57/43
f 47/49/44 46/53/44 62/67/44 63/68/44
f 40/42/45 39/41/45 55/57/45 56/56/45
f 48/50/46 47/49/46 63/68/46 64/69/46
f 41/52/47 40/42/47 56/56/47 57/70/47
f 33/31/48 34/54/48 50/71/48 49/39/48
f 34/55/49 48/50/49 64/69/49 50/72/49
f 42/47/50 41/52/50 57/70/50 58/60/50
f 65/73/51 66/74/51 80/75/51 79/76/51 78/77/51 77/78/51 76/79/51 75/80/51 74/81/51 73/82/51 72/83/51 71/84/51 70/85/51 69/86/51 68/87/51 67/88/51
f 64/69/52 63/68/52 79/89/52 80/90/52
f 57/70/53 56/56/53 72/59/53 73/91/53
f 49/39/54 50/71/54 66/92/54 65/93/54
f 50/72/55 64/69/55 80/90/55 66/94/55
f 58/60/56 57/70/56 73/91/56 74/95/56
f 51/40/57 49/39/57 65/93/57 67/96/57
f 59/61/58 58/60/58 74/95/58 75/97/58
f 52/62/59 51/40/59 67/96/59 68/98/59
f 60/63/60 59/61/60 75/97/60 76/99/60
f 53/64/61 52/62/61 68/98/61 69/100/61
f 61/65/62 60/63/62 76/99/62 77/101/62
f 54/66/63 53/64/63 69/100/63 70/102/63
f 62/67/64 61/65/64 77/101/64 78/103/64
f 55/57/65 54/66/65 70/102/65 71/58/65
f 63/68/66 62/67/66 78/103/66 79/89/66
f 91/37/11 92/104/11 108/105/11 107/106/11
f 29/30/18 31/34/18 96/107/18 95/108/18
f 5/6/18 7/8/18 84/109/18 83/110/18
f 15/16/18 17/18/18 89/111/18 88/112/18
f 1/1/18 3/4/18 82/113/18 81/114/18
f 25/26/18 27/28/18 94/115/18 93/116/18
f 11/12/18 13/14/18 87/117/18 86/118/18
f 21/22/18 23/24/18 92/104/18 91/37/18
f 31/34/18 1/36/18 81/119/18 96/107/18
f 7/8/18 9/10/18 85/120/18 84/109/18
f 17/18/18 19/20/18 90/38/18 89/111/18
f 27/28/18 29/30/18 95/108/18 94/115/18
f 3/4/18 5/6/18 83/110/18 82/113/18
f 13/14/18 15/16/18 88/112/18 87/117/18
f 23/24/18 25/26/18 93/116/18 92/104/18
f 9/10/18 11/12/18 86/118/18 85/120/18
f 97/121/18 98/122/18 99/123/18 100/124/18 101/125/18 102/126/18 103/127/18 104/128/18 105/129/18 106/130/18 107/131/18 108/132/18 109/133/18 110/134/18 111/135/18 112/136/18
f 84/109/4 85/120/4 101/137/4 100/138/4
f 92/104/12 93/116/12 109/139/12 108/105/12
f 85/120/5 86/118/5 102/140/5 101/137/5
f 93/116/13 94/115/13 110/141/13 109/139/13
f 86/118/6 87/117/6 103/142/6 102/140/6
f 94/115/14 95/108/14 111/143/14 110/141/14
f 87/117/7 88/112/7 104/144/7 103/142/7
f 95/108/16 96/107/16 112/145/16 111/143/16
f 88/112/8 89/111/8 105/146/8 104/144/8
f 81/114/1 82/113/1 98/147/1 97/148/1
f 96/107/17 81/119/17 97/149/17 112/145/17
f 89/111/9 90/38/9 106/150/9 105/146/9
f 82/113/2 83/110/2 99/151/2 98/147/2
f 90/38/10 91/37/10 107/106/10 106/150/10
f 83/110/3 84/109/3 100/138/3 99/151/3
