# Blender v3.2.0 OBJ File: ''
# www.blender.org
mtllib Arena.mtl
o Cube
v 24.524065 0.024524 -24.524065
v 24.524065 0.024524 24.524065
v 24.524057 9.322489 -24.524057
v 24.524057 9.425476 24.524057
v 24.524057 13.758868 -24.524057
v 24.524057 13.758868 24.524057
v 23.742865 15.967978 -23.742865
v 23.742865 15.967978 23.742865
v 21.780407 17.174923 -21.780407
v 21.780407 17.174923 21.780407
v 16.702749 18.324734 -16.702749
v 16.702749 18.324734 16.702749
v 9.224976 18.512957 -9.224976
v 9.224976 18.512957 9.224976
v 0.000000 0.024524 24.524065
v 0.000000 0.024524 -24.524065
v 0.000000 9.425476 24.524057
v 0.000000 18.522182 9.224976
v 0.000000 18.522182 -9.224976
v 0.000000 13.810362 24.524057
v 0.000000 15.991719 23.742865
v 0.000000 17.196701 21.780407
v 0.000000 18.341434 16.702749
v 0.000000 18.341434 -16.702749
v 0.000000 17.196701 -21.780407
v 0.000000 15.991719 -23.742865
v 0.000000 13.810362 -24.524057
v 0.000000 9.373982 -24.524057
v 24.524057 12.871592 -24.524057
v 24.524057 11.984316 -24.524057
v 24.524057 11.097040 -24.524057
v 24.524057 10.209764 -24.524057
v 24.524057 10.292155 24.524057
v 24.524057 11.158833 24.524057
v 24.524057 12.025512 24.524057
v 24.524057 12.892190 24.524057
v 0.000000 12.923085 -24.524057
v 0.000000 12.035810 -24.524057
v 0.000000 11.148534 -24.524057
v 0.000000 10.261259 -24.524057
v 0.000000 10.302453 24.524057
v 0.000000 11.179430 24.524057
v 0.000000 12.056407 24.524057
v 0.000000 12.933385 24.524057
v 24.133461 14.863422 -24.133461
v 24.133461 14.863422 24.133461
v 0.000000 14.901041 -24.133461
v 0.000000 14.901041 24.133461
v -24.524065 0.024524 -24.524065
v -24.524065 0.024524 24.524065
v -24.524057 9.322489 -24.524057
v -24.524057 9.425476 24.524057
v -24.524057 13.758868 -24.524057
v -24.524057 13.758868 24.524057
v -23.742865 15.967978 -23.742865
v -23.742865 15.967978 23.742865
v -21.780407 17.174923 -21.780407
v -21.780407 17.174923 21.780407
v -16.702749 18.324734 -16.702749
v -16.702749 18.324734 16.702749
v -9.224976 18.512957 -9.224976
v -9.224976 18.512957 9.224976
v -24.524057 12.871592 -24.524057
v -24.524057 11.984316 -24.524057
v -24.524057 11.097040 -24.524057
v -24.524057 10.209764 -24.524057
v -24.524057 10.292155 24.524057
v -24.524057 11.158833 24.524057
v -24.524057 12.025512 24.524057
v -24.524057 12.892190 24.524057
v -24.133461 14.863422 -24.133461
v -24.133461 14.863422 24.133461
vt 0.750000 0.750000
vt 0.750000 0.750000
vt 0.625000 0.750000
vt 0.625000 0.750000
vt 0.375000 0.500000
vt 0.375000 0.750000
vt 0.375000 0.750000
vt 0.375000 0.500000
vt 0.375000 0.500000
vt 0.375000 0.750000
vt 0.375000 0.750000
vt 0.375000 0.500000
vt 0.375000 0.750000
vt 0.375000 0.500000
vt 0.375000 0.750000
vt 0.375000 0.500000
vt 0.625000 0.500000
vt 0.625000 0.750000
vt 0.625000 0.500000
vt 0.625000 0.500000
vt 0.625000 0.500000
vt 0.625000 0.750000
vt 0.625000 0.750000
vt 0.625000 0.750000
vt 0.375000 0.750000
vt 0.375000 0.750000
vt 0.625000 0.750000
vt 0.625000 0.750000
vt 0.625000 0.500000
vt 0.625000 0.500000
vt 0.750000 0.500000
vt 0.750000 0.500000
vt 0.375000 0.750000
vt 0.425000 0.750000
vt 0.475000 0.750000
vt 0.375000 0.750000
vt 0.375000 0.750000
vt 0.525000 0.750000
vt 0.575000 0.750000
vt 0.375000 0.750000
vt 0.725000 0.500000
vt 0.575000 0.500000
vt 0.525000 0.500000
vt 0.700000 0.500000
vt 0.375000 0.500000
vt 0.375000 0.500000
vt 0.675000 0.500000
vt 0.475000 0.500000
vt 0.425000 0.500000
vt 0.650000 0.500000
vt 0.625000 0.500000
vt 0.625000 0.500000
vt 0.375000 0.500000
vt 0.375000 0.500000
vt 0.375000 0.500000
vt 0.375000 0.500000
vt 0.625000 0.750000
vt 0.625000 0.750000
vt 0.375000 0.500000
vt 0.375000 0.500000
vt 0.375000 0.750000
vt 0.375000 0.750000
vt 0.375000 0.500000
vt 0.375000 0.500000
vt 0.375000 0.750000
vt 0.375000 0.750000
vt 0.375000 0.500000
vt 0.375000 0.750000
vt 0.375000 0.500000
vt 0.375000 0.750000
vt 0.375000 0.750000
vt 0.375000 0.750000
vt 0.625000 0.500000
vt 0.625000 0.500000
vt 0.375000 0.750000
vt 0.375000 0.750000
vt 0.375000 0.750000
vt 0.375000 0.750000
vt 0.525000 0.500000
vt 0.575000 0.500000
vt 0.375000 0.500000
vt 0.375000 0.500000
vt 0.425000 0.500000
vt 0.475000 0.500000
vt 0.375000 0.500000
vt 0.375000 0.500000
vt 0.375000 0.500000
vt 0.375000 0.500000
vn 0.0000 -0.0000 -1.0000
vn -1.0000 -0.0000 0.0000
vn -0.5239 -0.8518 0.0000
vn -0.2209 -0.9753 0.0000
vn -0.0252 -0.9997 0.0000
vn -0.0010 -1.0000 0.0000
vn -0.0009 -0.8522 0.5233
vn -0.0010 -0.9755 0.2199
vn -0.0010 -0.9997 0.0242
vn -0.0010 -0.9997 -0.0242
vn -0.0010 -0.9755 -0.2199
vn -0.0009 -0.8522 -0.5233
vn -0.0006 -0.3354 -0.9421
vn 0.0000 -0.0000 1.0000
vn 0.0000 1.0000 0.0000
vn -0.9428 -0.3334 0.0000
vn -0.0006 -0.3354 0.9421
vn 1.0000 -0.0000 0.0000
vn 0.5239 -0.8518 0.0000
vn 0.2209 -0.9753 0.0000
vn 0.0252 -0.9997 0.0000
vn 0.0010 -1.0000 0.0000
vn 0.0009 -0.8522 0.5233
vn 0.0010 -0.9755 0.2199
vn 0.0010 -0.9997 0.0242
vn 0.0010 -0.9997 -0.0242
vn 0.0010 -0.9755 -0.2199
vn 0.0009 -0.8522 -0.5233
vn 0.0006 -0.3354 -0.9421
vn 0.9428 -0.3334 0.0000
vn 0.0006 -0.3354 0.9421
usemtl Material
s off
f 15/1/1 17/2/1 4/3/1 2/4/1
f 1/5/2 2/6/2 4/7/2 3/8/2
f 7/9/3 8/10/3 10/11/3 9/12/3
f 9/12/4 10/11/4 12/13/4 11/14/4
f 11/14/5 12/13/5 14/15/5 13/16/5
f 19/17/6 13/16/6 14/15/6 18/18/6
f 7/9/7 9/12/7 25/19/7 26/20/7
f 9/12/8 11/14/8 24/21/8 25/19/8
f 11/14/9 13/16/9 19/17/9 24/21/9
f 14/15/10 12/13/10 23/22/10 18/18/10
f 12/13/11 10/11/11 22/23/11 23/22/11
f 10/11/12 8/10/12 21/24/12 22/23/12
f 46/25/13 6/26/13 20/27/13 48/28/13
f 1/29/14 3/30/14 28/31/14 16/32/14
f 1/29/15 16/32/15 15/1/15 2/4/15
f 33/33/1 41/34/1 42/35/1 34/36/1
f 35/37/1 43/38/1 44/39/1 36/40/1
f 40/41/14 32/42/14 31/43/14 39/44/14
f 5/45/16 6/26/16 46/25/16 45/46/16
f 38/47/14 30/48/14 29/49/14 37/50/14
f 5/45/17 45/46/17 47/51/17 27/52/17
f 32/53/2 33/33/2 34/36/2 31/54/2
f 30/55/2 35/37/2 36/40/2 29/56/2
f 15/1/1 50/57/1 52/58/1 17/2/1
f 49/59/18 51/60/18 52/61/18 50/62/18
f 55/63/19 57/64/19 58/65/19 56/66/19
f 57/64/20 59/67/20 60/68/20 58/65/20
f 59/67/21 61/69/21 62/70/21 60/68/21
f 19/17/22 18/18/22 62/70/22 61/69/22
f 55/63/23 26/20/23 25/19/23 57/64/23
f 57/64/24 25/19/24 24/21/24 59/67/24
f 59/67/25 24/21/25 19/17/25 61/69/25
f 62/70/26 18/18/26 23/22/26 60/68/26
f 60/68/27 23/22/27 22/23/27 58/65/27
f 58/65/28 22/23/28 21/24/28 56/66/28
f 72/71/29 48/28/29 20/27/29 54/72/29
f 49/73/14 16/32/14 28/31/14 51/74/14
f 49/73/15 50/57/15 15/1/15 16/32/15
f 67/75/1 68/76/1 42/35/1 41/34/1
f 69/77/1 70/78/1 44/39/1 43/38/1
f 40/41/14 39/44/14 65/79/14 66/80/14
f 53/81/30 71/82/30 72/71/30 54/72/30
f 38/47/14 37/50/14 63/83/14 64/84/14
f 53/81/31 27/52/31 47/51/31 71/82/31
f 66/85/18 65/86/18 68/76/18 67/75/18
f 64/87/18 63/88/18 70/78/18 69/77/18
l 32 3
l 46 8
l 36 6
l 40 28
l 48 21
l 44 20
l 5 29
l 30 31
l 4 33
l 34 35
l 27 37
l 38 39
l 17 41
l 42 43
l 7 45
l 26 47
l 66 51
l 72 56
l 70 54
l 53 63
l 64 65
l 52 67
l 68 69
l 55 71
